<svg xmlns="http://www.w3.org/2000/svg" width="1920.5" height="600" viewBox="0 0 1920.5 600"><defs><style>.a,.c,.e,.f{fill:#888;}.b,.d,.s{fill:#fff;}.c,.e{font-size:21px;}.c,.d,.e{font-family:OpenSans-Regular, Open Sans;}.d{font-size:18px;}.e{letter-spacing:-0.01em;}.f{font-size:28px;font-family:OpenSans-Bold, Open Sans;font-weight:700;}.g{fill:#ff7900;}.h{fill:#f0f0f0;}.i{fill:#2a2a6c;}.j{opacity:0;}.k{fill:#f26122;}.l{fill:#ea1d25;}.m{fill:#f69e1e;}.n{fill:#253d80;}.o{fill:#189bd7;}.p{fill:#242e65;}.q,.r{fill:none;stroke:#888;}.q{stroke-linecap:round;stroke-linejoin:round;stroke-width:2px;}.r{stroke-width:0.5px;}.s{font-size:24px;font-family:OpenSans, Open Sans;}</style></defs><rect class="a" width="1920" height="100" transform="translate(0 500)"/><rect class="b" width="1919.999" height="500"/><text class="c" transform="translate(553 175)"><tspan x="0" y="0">My Profile</tspan><tspan x="0" y="48">My Order History</tspan><tspan x="0" y="96">My Wish List</tspan><tspan x="0" y="144">My Comparisons</tspan><tspan x="0" y="192">My Order Status</tspan><tspan x="0" y="240">Promos</tspan></text><text class="d" transform="translate(131 560)"><tspan x="0" y="0">Copyright © 2020 Switch Electronics &amp; Appliances. All Rights Reserved</tspan></text><text class="d" transform="translate(1321 560)"><tspan x="0" y="0">About us . Terms of Usage . Privacy Policy . Return Policy</tspan></text><text class="c" transform="translate(131 387)"><tspan x="0" y="0">+962 6 565 1771 </tspan><tspan x="0" y="28">(09:00 am to 05:00 pm)</tspan></text><text class="c" transform="translate(887 175)"><tspan x="0" y="0">Flash Deals</tspan><tspan x="0" y="48">Join Our Team</tspan><tspan x="0" y="96">Maintenance &amp; Repair</tspan><tspan x="0" y="144">Store Locator</tspan><tspan x="0" y="192">FAQ</tspan><tspan x="0" y="240">Blog</tspan></text><text class="e" transform="translate(1250 178)"><tspan x="0" y="22">All the latest &amp; best offers delivered right </tspan><tspan x="0" y="50">to your inbox. Subscribe now!</tspan></text><text class="f" transform="translate(1332 109)"><tspan x="0" y="0">SUBSCRIBE TO</tspan><tspan x="0" y="38">OUR NEWSLETTER</tspan></text><text class="f" transform="translate(885 109)"><tspan x="0" y="0">HIGHLIGHTS</tspan></text><text class="f" transform="translate(549 109)"><tspan x="0" y="0">ACCOUNT</tspan></text><text class="f" transform="translate(131 342)"><tspan x="0" y="0">NEED HELP?</tspan></text><g transform="translate(0 -2957)"><path class="g" d="M13.666,41.563l-.132-.034c-5.416-1.346-5.416-1.934-5.416-3.221,0-.915.784-3.29,4.365-3.29,2.306,0,3.627,1.071,4.057,1.988l.016.033a4.067,4.067,0,0,0,7.5-.389,4.171,4.171,0,0,0-.176-3.187c-1.938-4.175-6.2-6.666-11.394-6.666a12.614,12.614,0,0,0-9.13,3.547l-.034.034A11.468,11.468,0,0,0,0,38.308C0,46.535,6.893,48.343,11.454,49.54l.088.023c5.713,1.475,6,2.213,6,4.13s-1.739,3.872-5.062,3.872c-2.744,0-4.263-1.251-4.725-2.312a4.018,4.018,0,0,0-5.336-2.1l-.094.045a4.271,4.271,0,0,0-1.954,5.5c1.973,4.417,6.614,7.161,12.11,7.161a13.411,13.411,0,0,0,9.639-3.743l.032-.032a12.123,12.123,0,0,0,3.509-8.384c0-8.983-7.51-10.953-12-12.13" transform="translate(129 3007.935)"/><path class="g" d="M117.252,26.958l-.07-.024a4.062,4.062,0,0,0-5.056,2.646l-6.416,20.151-5.69-14.117a3.95,3.95,0,0,0-3.713-2.5,4.055,4.055,0,0,0-3.783,2.518L86.9,49.708,80.506,29.631l-.016-.05A4.136,4.136,0,0,0,75.4,26.925l-.14.047a4.259,4.259,0,0,0-2.486,5.169l9.808,30.8a4.074,4.074,0,0,0,3.624,2.882l.155.006a4.02,4.02,0,0,0,3.85-2.6l6.094-15.1,6.1,15.13a4.035,4.035,0,0,0,3.713,2.569h.136l.072-.006a4.012,4.012,0,0,0,3.629-2.86l9.884-30.846a4.182,4.182,0,0,0-2.594-5.161" transform="translate(84.889 3007.964)"/><path class="g" d="M260.6,43.411a4,4,0,0,0-5.662.368l-.092.11a1.878,1.878,0,0,1-1.517.709,2.14,2.14,0,0,1-2.148-2.127V22.049h5.125a4.111,4.111,0,0,0,0-8.222h-5.125V9.309a4.059,4.059,0,0,0-4.06-4.143,4.106,4.106,0,0,0-4.058,4.143v4.524a4.118,4.118,0,0,0,0,8.212V42.47a10.352,10.352,0,0,0,10.267,10.413,10.135,10.135,0,0,0,7.746-3.628l.059-.074a4.206,4.206,0,0,0-.534-5.77" transform="translate(-16.383 3020.903)"/><path class="g" d="M335.37,52.309a3.951,3.951,0,0,0-5.614,1.046,9.46,9.46,0,0,1-8.08,4.21c-5.774,0-10.129-4.833-10.129-11.241,0-6.446,4.355-11.306,10.129-11.306a9.5,9.5,0,0,1,8.1,4.3,3.99,3.99,0,0,0,5.6,1.019,4.225,4.225,0,0,0,1.043-5.767l-.019-.029A17.5,17.5,0,0,0,321.675,26.8c-10.367,0-18.184,8.4-18.184,19.528s7.817,19.528,18.184,19.528a17.514,17.514,0,0,0,14.7-7.786,4.187,4.187,0,0,0,.682-3.122,4.047,4.047,0,0,0-1.688-2.635" transform="translate(-55.408 3007.935)"/><path class="g" d="M417.3,10.731a15.632,15.632,0,0,0-7.784,2.032V4.143A4.059,4.059,0,0,0,405.453,0a4.106,4.106,0,0,0-4.058,4.143v41.5a4.106,4.106,0,0,0,4.058,4.143,4.058,4.058,0,0,0,4.06-4.143V27.673c0-4.972,3.346-8.721,7.784-8.721,4.4,0,7.722,3.749,7.722,8.721V45.643a4.106,4.106,0,0,0,4.059,4.143,4.059,4.059,0,0,0,4.06-4.143V27.673c0-9.659-6.809-16.942-15.841-16.942" transform="translate(-114.897 3024)"/><path class="g" d="M209.66,25.137a5.041,5.041,0,0,0-4.983,5.086V59.985a4.984,4.984,0,1,0,9.966,0V30.223a5.041,5.041,0,0,0-4.983-5.086" transform="translate(4.633 3008.929)"/><path class="b" d="M212.942,46.087h0a2.893,2.893,0,0,1-2.863-2.922V34.4a2.864,2.864,0,1,1,5.727,0v8.767a2.893,2.893,0,0,1-2.864,2.922" transform="translate(1.351 3005.129)"/></g><text class="f" transform="translate(131 199)"><tspan x="0" y="0">FIND US</tspan></text><g transform="translate(2 -2914)"><path class="a" d="M39.185,0a20,20,0,1,0,20,20,20,20,0,0,0-20-20m8.631,15.574c.006.191.011.386.011.574A12.664,12.664,0,0,1,28.334,26.82a9.3,9.3,0,0,0,1.06.06,8.93,8.93,0,0,0,5.531-1.906,4.458,4.458,0,0,1-4.16-3.091,4.493,4.493,0,0,0,2.011-.074A4.46,4.46,0,0,1,29.2,17.44v-.057a4.427,4.427,0,0,0,2.017.557A4.456,4.456,0,0,1,29.845,12a12.626,12.626,0,0,0,9.177,4.651,4.542,4.542,0,0,1-.117-1.014,4.455,4.455,0,0,1,7.706-3.046,8.86,8.86,0,0,0,2.826-1.083,4.457,4.457,0,0,1-1.957,2.463,8.827,8.827,0,0,0,2.557-.7,9.111,9.111,0,0,1-2.22,2.306" transform="translate(164.629 3136)"/><path class="a" d="M58.37,0a20,20,0,1,0,20,20,20,20,0,0,0-20-20M68.7,24.126a3.265,3.265,0,0,1-1.414,2.623,4.048,4.048,0,0,1-2.029.463c-2.274.083-4.554.151-6.746.22-2.377-.071-4.669-.123-6.957-.229a7.251,7.251,0,0,1-1.851-.374,2.126,2.126,0,0,1-1.271-1.257,7.96,7.96,0,0,1-.517-2.763,37.982,37.982,0,0,1,.129-6.957,3.306,3.306,0,0,1,1.366-2.617,3.866,3.866,0,0,1,1.951-.486c4.294-.231,8.589-.229,12.883-.063a17.071,17.071,0,0,1,2.129.186,2.489,2.489,0,0,1,1.974,1.594,8.028,8.028,0,0,1,.483,2.637,37.937,37.937,0,0,1-.129,7.023" transform="translate(200.259 3136)"/><path class="a" d="M20,0A20,20,0,1,0,40,20,20,20,0,0,0,20,0m6.406,11.634-2.32,0c-1.82,0-2.174.866-2.174,2.134v2.8h4.343l-.566,4.386H21.911v11.5H17.383V20.96H13.6V16.574h3.786V13.34c0-3.757,2.291-5.8,5.64-5.8a30.6,30.6,0,0,1,3.383.174Z" transform="translate(129 3136)"/><path class="a" d="M44.527,12.194C46.584,11.128,48.61,10.08,50.684,9c-2.08-1.083-4.109-2.14-6.157-3.209Z" transform="translate(211.693 3146.76)"/><path class="a" d="M77.553,0h0a20,20,0,1,0,20,20,20,20,0,0,0-20-20M72.319,28.917H68.13V14.26h4.189Zm-2.094-15.7a2.093,2.093,0,1,1,2.094-2.094,2.094,2.094,0,0,1-2.094,2.094m16.751,15.7H82.787V20.54a2.094,2.094,0,0,0-4.189,0v8.377H74.416V14.26H78.6v2.1c.243-1.031.743-2.1,3.663-2.1,4.166,0,4.714,3.143,4.714,7.331Z" transform="translate(235.89 3136)"/><path class="a" d="M96.74,0a20,20,0,1,0,20,20,20,20,0,0,0-20-20m11.209,25.466c-.014.077-.023.157-.043.234a10.265,10.265,0,0,1-.471,1.74,6,6,0,0,1-5.7,3.749c-3.326.049-6.654.014-9.98.009a5.949,5.949,0,0,1-3.534-1.1,6.092,6.092,0,0,1-2.683-5.206q-.013-4.9,0-9.806a6.192,6.192,0,0,1,.114-1.26,6.083,6.083,0,0,1,4.609-4.857c.329-.094.671-.123,1.009-.186h10.943c.229.037.46.063.686.111a6.111,6.111,0,0,1,4.866,4.617c.089.329.123.671.183,1.006Z" transform="translate(271.517 3136)"/><path class="a" d="M86.2,5.674a3.783,3.783,0,1,0,3.786,3.78A3.789,3.789,0,0,0,86.2,5.674" transform="translate(282.06 3146.537)"/><path class="a" d="M98.951,8.14a4.433,4.433,0,0,0-.223-1.509,4.2,4.2,0,0,0-4.106-2.857c-3.263-.006-6.523-.011-9.783.009a4.851,4.851,0,0,0-1.46.223A4.152,4.152,0,0,0,80.517,8.1q-.009,4.886,0,9.78a4.369,4.369,0,0,0,.226,1.483,4.182,4.182,0,0,0,4.069,2.846q4.924.013,9.849,0a4.14,4.14,0,0,0,3.52-1.786,4.19,4.19,0,0,0,.774-2.546c0-1.629,0-3.254,0-4.88s0-3.24,0-4.857m-9.22,10.629a5.776,5.776,0,1,1,5.777-5.777,5.8,5.8,0,0,1-5.777,5.777M95.7,8.44a1.452,1.452,0,1,1,1.511-1.429A1.466,1.466,0,0,1,95.7,8.44" transform="translate(278.526 3143)"/></g><rect class="h" width="540" height="60" rx="30" transform="translate(1250 264)"/><text class="c" transform="translate(1278 301)"><tspan x="0" y="0">Enter email address</tspan></text><g transform="translate(1250 384.443)"><path class="h" d="M4,0H60a4,4,0,0,1,4,4V39a4,4,0,0,1-4,4H4a4,4,0,0,1-4-4V4A4,4,0,0,1,4,0Z" transform="translate(0 -0.444)"/><path class="i" d="M22.481,12.58a9.417,9.417,0,0,1-3.44-.648l.568-2.642a6.632,6.632,0,0,0,3.14.794h.084c.941-.013,1.89-.39,1.89-1.2.013-.517-.431-.929-1.639-1.52-1.185-.58-2.761-1.554-2.761-3.317C20.322,1.663,22.5,0,25.607,0a8.475,8.475,0,0,1,2.96.542l-.554,2.642a5.962,5.962,0,0,0-2.537-.571c-.194,0-.39.01-.582.029-.913.121-1.321.6-1.321,1.018,0,.512.655.855,1.483,1.289C26.371,5.638,28.007,6.495,28,8.51l.067-.106c-.013,2.537-2.177,4.175-5.51,4.175Zm8.756-.105H27.907L32.651,1.15a1.436,1.436,0,0,1,1.321-.9h2.642l2.562,12.221-2.932,0-.383-1.823H31.884l-.647,1.823Zm3.145-8.92L32.716,8.139h2.629Zm-17.6,8.88H13.609L16.253.212h3.17L16.781,12.433Zm-6.937-.04H6.4L3.872,2.629a1.329,1.329,0,0,0-.754-1.07A13.1,13.1,0,0,0,0,.528L.08.171H5.457A1.477,1.477,0,0,1,6.923,1.414L8.245,8.483,11.535.171h3.436L9.844,12.393Z" transform="translate(12.103 15.112)"/></g><g transform="translate(1340.179 384.443)"><rect class="h" width="63" height="43" rx="4" transform="translate(-0.179 -0.444)"/><g transform="translate(5.816 4.502)"><g class="j" transform="translate(0 0)"><rect class="b" width="51.149" height="33.826"/></g><rect class="k" width="13.491" height="22.04" transform="translate(18.829 5.893)"/><path class="l" d="M17.4,14.02A13.98,13.98,0,0,1,22.685,3a14.019,14.019,0,1,0,0,22.04A13.98,13.98,0,0,1,17.4,14.02Z" transform="translate(2.882 2.893)"/><path class="m" d="M.661.544H.568V0H.7L.872.383,1.031,0h.132V.541H1.07V.132L.925.489H.819L.661.132v.41Zm-.4,0H.186V.093H0V0H.463V.093h-.2V.541Z" transform="translate(46.63 25.052)"/><path class="m" d="M22.674,14.01A14.019,14.019,0,0,1,0,25.03,14.019,14.019,0,0,0,2.352,5.356,13.742,13.742,0,0,0,0,2.991,14.019,14.019,0,0,1,22.674,14.01Z" transform="translate(25.568 2.903)"/></g></g><g transform="translate(1429.345 384.443)"><path class="h" d="M4,0H60a4,4,0,0,1,4,4V39a4,4,0,0,1-4,4H4a4,4,0,0,1-4-4V4A4,4,0,0,1,4,0Z" transform="translate(-0.345 -0.444)"/><g transform="translate(20.868 8.202)"><path class="n" d="M5.431,24.63l.462-2.907H0L3.383.238A.277.277,0,0,1,3.475.066.317.317,0,0,1,3.66,0h8.205c2.735,0,4.611.568,5.6,1.691a3.634,3.634,0,0,1,.885,1.678,5.84,5.84,0,0,1,0,2.312v.661l.462.264a3.29,3.29,0,0,1,.938.7,3.422,3.422,0,0,1,.753,1.7,7.571,7.571,0,0,1-.106,2.458,8.562,8.562,0,0,1-1.017,2.788,5.682,5.682,0,0,1-1.6,1.757,6.686,6.686,0,0,1-2.154.965,10.452,10.452,0,0,1-2.643.317h-.647a1.942,1.942,0,0,0-1.242.449,1.876,1.876,0,0,0-.647,1.163v.264L9.646,24.3v.2a.2.2,0,0,1,0,.106H9.566Z" transform="translate(0.933 0.899)"/><path class="o" d="M14.766,0l-.079.489C13.6,6.038,9.89,7.968,5.16,7.968h-2.4a1.176,1.176,0,0,0-1.163.991L.364,16.781.007,19a.621.621,0,0,0,.608.714H4.9a1.031,1.031,0,0,0,1.017-.872v-.211l.806-5.114V13.24a1.017,1.017,0,0,1,1-.872h.7c4.136,0,7.386-1.678,8.324-6.607A5.6,5.6,0,0,0,15.9.832,4.268,4.268,0,0,0,14.766,0Z" transform="translate(5.418 6.712)"/><path class="p" d="M11.945.384l-.5-.132L10.888.146A13.293,13.293,0,0,0,8.774,0H2.326a.951.951,0,0,0-.436.092A1,1,0,0,0,1.321.86L0,9.541v.251A1.176,1.176,0,0,1,1.163,8.8h2.4c4.73,0,8.443-1.929,9.527-7.479l.079-.489a5.92,5.92,0,0,0-.885-.37Z" transform="translate(7.103 5.879)"/><path class="n" d="M8.425,6.739a1,1,0,0,1,.568-.766.951.951,0,0,1,.436-.092h6.448a13.293,13.293,0,0,1,2.114.145l.555.106.5.132.251.079a5.919,5.919,0,0,1,.885.37A5.285,5.285,0,0,0,19.127,2c-1.321-1.4-3.488-2-6.316-2H4.593A1.176,1.176,0,0,0,3.43.991L.008,22.674a.714.714,0,0,0,.7.819H5.782L7.1,15.42Z" transform="translate(0 0)"/></g></g><g transform="translate(-491.059 -2946.037)"><g transform="translate(1741.059 3036)"><path class="q" d="M27.745,20.233.927,36.008H54.563Z" transform="translate(-0.061 19.717)"/><path class="q" d="M.927,38V18.289l16.755,9.855Z" transform="translate(-0.061 17.725)"/><path class="q" d="M35.9,18.289V38L19.145,28.144Z" transform="translate(18.602 17.725)"/><path class="q" d="M6.735,36.293V7.465h30.12V36.293" transform="translate(5.889 6.636)"/><path class="q" d="M12.685,9.211.927,16.578V47.3H54.563V16.578L42.805,9.211" transform="translate(-0.061 8.425)"/><path class="q" d="M28.356,10.45,18.94,4.55l-9.418,5.9" transform="translate(8.744 3.65)"/><rect class="q" width="12.851" height="5.229" transform="translate(17.944 20.94)"/><line class="q" x2="19.496" y2="0.083" transform="translate(17.945 30.869)"/><line class="q" x2="19.479" transform="translate(17.945 35.41)"/><line class="q" x1="5.264" y1="4.727" transform="translate(0 8.664)"/><line class="q" x1="3.023" y1="7.29" transform="translate(12.52)"/><line class="q" y1="4.727" x2="5.264" transform="translate(50.104 8.664)"/><line class="q" y1="7.29" x2="3.023" transform="translate(39.827)"/></g></g><line class="r" x2="1920" transform="translate(0.5 0.5)"/><rect class="g" width="160" height="60" rx="30" transform="translate(1630 264)"/><text class="s" transform="translate(1715 302)"><tspan x="-54.762" y="0">Subscribe</tspan></text></svg>